<mxfile host="Electron" modified="2024-11-05T15:37:49.258Z" agent="Mozilla/5.0 (Windows NT 10.0; Win64; x64) AppleWebKit/537.36 (KHTML, like Gecko) draw.io/22.1.2 Chrome/114.0.5735.289 Electron/25.9.4 Safari/537.36" etag="HqkpVcXkLmaCBK4NU_YO" version="22.1.2" type="device">
  <diagram name="Page-1" id="2YBvvXClWsGukQMizWep">
    <mxGraphModel dx="2058" dy="1188" grid="1" gridSize="10" guides="1" tooltips="1" connect="1" arrows="1" fold="1" page="1" pageScale="1" pageWidth="850" pageHeight="1100" math="0" shadow="0">
      <root>
        <mxCell id="0" />
        <mxCell id="1" parent="0" />
        <mxCell id="aM9ryv3xv72pqoxQDRHE-1" value="System" style="shape=umlLifeline;perimeter=lifelinePerimeter;whiteSpace=wrap;html=1;container=0;dropTarget=0;collapsible=0;recursiveResize=0;outlineConnect=0;portConstraint=eastwest;newEdgeStyle={&quot;edgeStyle&quot;:&quot;elbowEdgeStyle&quot;,&quot;elbow&quot;:&quot;vertical&quot;,&quot;curved&quot;:0,&quot;rounded&quot;:0};" parent="1" vertex="1">
          <mxGeometry x="110" y="40" width="100" height="780" as="geometry" />
        </mxCell>
        <mxCell id="aM9ryv3xv72pqoxQDRHE-2" value="" style="html=1;points=[];perimeter=orthogonalPerimeter;outlineConnect=0;targetShapes=umlLifeline;portConstraint=eastwest;newEdgeStyle={&quot;edgeStyle&quot;:&quot;elbowEdgeStyle&quot;,&quot;elbow&quot;:&quot;vertical&quot;,&quot;curved&quot;:0,&quot;rounded&quot;:0};" parent="aM9ryv3xv72pqoxQDRHE-1" vertex="1">
          <mxGeometry x="45" y="70" width="10" height="230" as="geometry" />
        </mxCell>
        <mxCell id="ShONzFAMttrnNPg3EB9--27" value="" style="html=1;points=[[0,0,0,0,5],[0,1,0,0,-5],[1,0,0,0,5],[1,1,0,0,-5]];perimeter=orthogonalPerimeter;outlineConnect=0;targetShapes=umlLifeline;portConstraint=eastwest;newEdgeStyle={&quot;curved&quot;:0,&quot;rounded&quot;:0};" parent="aM9ryv3xv72pqoxQDRHE-1" vertex="1">
          <mxGeometry x="45" y="340" width="10" height="190" as="geometry" />
        </mxCell>
        <mxCell id="ShONzFAMttrnNPg3EB9--29" value="" style="html=1;points=[[0,0,0,0,5],[0,1,0,0,-5],[1,0,0,0,5],[1,1,0,0,-5]];perimeter=orthogonalPerimeter;outlineConnect=0;targetShapes=umlLifeline;portConstraint=eastwest;newEdgeStyle={&quot;curved&quot;:0,&quot;rounded&quot;:0};labelBackgroundColor=none;" parent="aM9ryv3xv72pqoxQDRHE-1" vertex="1">
          <mxGeometry x="45" y="580" width="10" height="140" as="geometry" />
        </mxCell>
        <mxCell id="aM9ryv3xv72pqoxQDRHE-5" value="Database" style="shape=umlLifeline;perimeter=lifelinePerimeter;whiteSpace=wrap;html=1;container=0;dropTarget=0;collapsible=0;recursiveResize=0;outlineConnect=0;portConstraint=eastwest;newEdgeStyle={&quot;edgeStyle&quot;:&quot;elbowEdgeStyle&quot;,&quot;elbow&quot;:&quot;vertical&quot;,&quot;curved&quot;:0,&quot;rounded&quot;:0};" parent="1" vertex="1">
          <mxGeometry x="290" y="40" width="100" height="780" as="geometry" />
        </mxCell>
        <mxCell id="aM9ryv3xv72pqoxQDRHE-6" value="" style="html=1;points=[];perimeter=orthogonalPerimeter;outlineConnect=0;targetShapes=umlLifeline;portConstraint=eastwest;newEdgeStyle={&quot;edgeStyle&quot;:&quot;elbowEdgeStyle&quot;,&quot;elbow&quot;:&quot;vertical&quot;,&quot;curved&quot;:0,&quot;rounded&quot;:0};" parent="aM9ryv3xv72pqoxQDRHE-5" vertex="1">
          <mxGeometry x="45" y="150" width="10" height="150" as="geometry" />
        </mxCell>
        <mxCell id="ShONzFAMttrnNPg3EB9--21" value="" style="html=1;points=[[0,0,0,0,5],[0,1,0,0,-5],[1,0,0,0,5],[1,1,0,0,-5]];perimeter=orthogonalPerimeter;outlineConnect=0;targetShapes=umlLifeline;portConstraint=eastwest;newEdgeStyle={&quot;curved&quot;:0,&quot;rounded&quot;:0};" parent="aM9ryv3xv72pqoxQDRHE-5" vertex="1">
          <mxGeometry x="45" y="330" width="10" height="150" as="geometry" />
        </mxCell>
        <mxCell id="aM9ryv3xv72pqoxQDRHE-8" value="&lt;font style=&quot;font-size: 8px;&quot;&gt;Display error message&lt;/font&gt;" style="html=1;verticalAlign=bottom;endArrow=open;dashed=1;endSize=8;edgeStyle=elbowEdgeStyle;elbow=vertical;curved=0;rounded=0;" parent="1" edge="1">
          <mxGeometry relative="1" as="geometry">
            <mxPoint x="55" y="323" as="targetPoint" />
            <Array as="points">
              <mxPoint x="150" y="323" />
            </Array>
            <mxPoint x="155" y="323" as="sourcePoint" />
          </mxGeometry>
        </mxCell>
        <mxCell id="aM9ryv3xv72pqoxQDRHE-9" value="&lt;font style=&quot;font-size: 8px;&quot;&gt;Fetch course details&lt;/font&gt;" style="html=1;verticalAlign=bottom;endArrow=block;edgeStyle=elbowEdgeStyle;elbow=vertical;curved=0;rounded=0;" parent="1" source="ShONzFAMttrnNPg3EB9--21" target="ShONzFAMttrnNPg3EB9--27" edge="1">
          <mxGeometry relative="1" as="geometry">
            <mxPoint x="325" y="410" as="sourcePoint" />
            <Array as="points">
              <mxPoint x="270" y="410" />
              <mxPoint x="285" y="370" />
            </Array>
            <mxPoint x="170" y="410" as="targetPoint" />
          </mxGeometry>
        </mxCell>
        <mxCell id="aM9ryv3xv72pqoxQDRHE-3" value="&lt;font style=&quot;font-size: 8px;&quot;&gt;Upload&amp;nbsp;necessary data&lt;/font&gt;" style="html=1;verticalAlign=bottom;startArrow=oval;endArrow=block;startSize=8;edgeStyle=elbowEdgeStyle;elbow=vertical;curved=0;rounded=0;labelBackgroundColor=none;" parent="1" edge="1">
          <mxGeometry x="-0.0028" relative="1" as="geometry">
            <mxPoint x="60" y="120" as="sourcePoint" />
            <mxPoint x="155" y="120" as="targetPoint" />
            <Array as="points">
              <mxPoint x="80" y="120" />
            </Array>
            <mxPoint as="offset" />
          </mxGeometry>
        </mxCell>
        <mxCell id="ShONzFAMttrnNPg3EB9--7" value="" style="shape=umlLifeline;perimeter=lifelinePerimeter;whiteSpace=wrap;html=1;container=1;dropTarget=0;collapsible=0;recursiveResize=0;outlineConnect=0;portConstraint=eastwest;newEdgeStyle={&quot;curved&quot;:0,&quot;rounded&quot;:0};participant=umlActor;" parent="1" vertex="1">
          <mxGeometry x="40" y="40" width="20" height="780" as="geometry" />
        </mxCell>
        <mxCell id="ShONzFAMttrnNPg3EB9--15" value="" style="html=1;points=[[0,0,0,0,5],[0,1,0,0,-5],[1,0,0,0,5],[1,1,0,0,-5]];perimeter=orthogonalPerimeter;outlineConnect=0;targetShapes=umlLifeline;portConstraint=eastwest;newEdgeStyle={&quot;curved&quot;:0,&quot;rounded&quot;:0};" parent="ShONzFAMttrnNPg3EB9--7" vertex="1">
          <mxGeometry x="5" y="150" width="10" height="150" as="geometry" />
        </mxCell>
        <mxCell id="ShONzFAMttrnNPg3EB9--41" value="" style="html=1;points=[[0,0,0,0,5],[0,1,0,0,-5],[1,0,0,0,5],[1,1,0,0,-5]];perimeter=orthogonalPerimeter;outlineConnect=0;targetShapes=umlLifeline;portConstraint=eastwest;newEdgeStyle={&quot;curved&quot;:0,&quot;rounded&quot;:0};" parent="ShONzFAMttrnNPg3EB9--7" vertex="1">
          <mxGeometry x="5" y="600" width="10" height="110" as="geometry" />
        </mxCell>
        <mxCell id="ShONzFAMttrnNPg3EB9--45" value="" style="html=1;points=[[0,0,0,0,5],[0,1,0,0,-5],[1,0,0,0,5],[1,1,0,0,-5]];perimeter=orthogonalPerimeter;outlineConnect=0;targetShapes=umlLifeline;portConstraint=eastwest;newEdgeStyle={&quot;curved&quot;:0,&quot;rounded&quot;:0};" parent="ShONzFAMttrnNPg3EB9--7" vertex="1">
          <mxGeometry x="5" y="70" width="10" height="20" as="geometry" />
        </mxCell>
        <mxCell id="ShONzFAMttrnNPg3EB9--8" value="&lt;span style=&quot;font-size: 8px;&quot;&gt;Alternative&lt;/span&gt;" style="shape=umlFrame;whiteSpace=wrap;html=1;pointerEvents=0;labelBackgroundColor=none;" parent="1" vertex="1">
          <mxGeometry x="50" y="200" width="290" height="130" as="geometry" />
        </mxCell>
        <mxCell id="ShONzFAMttrnNPg3EB9--9" value="" style="group" parent="1" vertex="1" connectable="0">
          <mxGeometry x="170" y="140" width="121" height="30" as="geometry" />
        </mxCell>
        <mxCell id="ShONzFAMttrnNPg3EB9--3" value="" style="shape=umlLifeline;perimeter=lifelinePerimeter;whiteSpace=wrap;html=1;container=1;dropTarget=0;collapsible=0;recursiveResize=0;outlineConnect=0;portConstraint=eastwest;newEdgeStyle={&quot;curved&quot;:0,&quot;rounded&quot;:0};participant=umlControl;" parent="ShONzFAMttrnNPg3EB9--9" vertex="1">
          <mxGeometry y="5" width="20" height="20" as="geometry" />
        </mxCell>
        <mxCell id="ShONzFAMttrnNPg3EB9--4" value="&lt;font style=&quot;font-size: 8px;&quot;&gt;Checking uploaded data&lt;/font&gt;" style="text;html=1;align=center;verticalAlign=middle;resizable=0;points=[];autosize=1;strokeColor=none;fillColor=none;fontSize=10;" parent="ShONzFAMttrnNPg3EB9--9" vertex="1">
          <mxGeometry x="11" width="110" height="30" as="geometry" />
        </mxCell>
        <mxCell id="ShONzFAMttrnNPg3EB9--10" value="User" style="text;html=1;align=center;verticalAlign=middle;resizable=0;points=[];autosize=1;strokeColor=none;fillColor=none;labelBackgroundColor=default;" parent="1" vertex="1">
          <mxGeometry x="25" y="80" width="50" height="30" as="geometry" />
        </mxCell>
        <mxCell id="ShONzFAMttrnNPg3EB9--12" value="&lt;font style=&quot;font-size: 8px;&quot;&gt;[Uploaded data is correct]&lt;/font&gt;" style="text;html=1;align=center;verticalAlign=middle;resizable=0;points=[];autosize=1;strokeColor=none;fillColor=none;labelBackgroundColor=default;" parent="1" vertex="1">
          <mxGeometry x="48" y="225" width="110" height="30" as="geometry" />
        </mxCell>
        <mxCell id="ShONzFAMttrnNPg3EB9--13" value="&lt;font style=&quot;font-size: 8px;&quot;&gt;[Uploaded data is incorrect]&lt;/font&gt;" style="text;html=1;align=center;verticalAlign=middle;resizable=0;points=[];autosize=1;strokeColor=none;fillColor=none;labelBackgroundColor=default;" parent="1" vertex="1">
          <mxGeometry x="45" y="276" width="120" height="30" as="geometry" />
        </mxCell>
        <mxCell id="ShONzFAMttrnNPg3EB9--16" value="&lt;span style=&quot;font-size: 8px;&quot;&gt;Save the data&lt;/span&gt;" style="html=1;verticalAlign=bottom;endArrow=block;edgeStyle=elbowEdgeStyle;elbow=vertical;curved=0;rounded=0;" parent="1" edge="1">
          <mxGeometry relative="1" as="geometry">
            <mxPoint x="165" y="251.76" as="sourcePoint" />
            <Array as="points">
              <mxPoint x="285" y="251.76" />
            </Array>
            <mxPoint x="335" y="251.76" as="targetPoint" />
          </mxGeometry>
        </mxCell>
        <mxCell id="ShONzFAMttrnNPg3EB9--17" value="" style="endArrow=none;dashed=1;html=1;rounded=0;exitX=0.002;exitY=0.445;exitDx=0;exitDy=0;exitPerimeter=0;" parent="1" edge="1">
          <mxGeometry width="50" height="50" relative="1" as="geometry">
            <mxPoint x="50.57999999999993" y="282.85" as="sourcePoint" />
            <mxPoint x="335" y="282.85" as="targetPoint" />
          </mxGeometry>
        </mxCell>
        <mxCell id="ShONzFAMttrnNPg3EB9--19" value="&lt;font style=&quot;font-size: 8px;&quot;&gt;Display success message&lt;/font&gt;" style="html=1;verticalAlign=bottom;endArrow=open;dashed=1;endSize=8;edgeStyle=elbowEdgeStyle;elbow=vertical;curved=0;rounded=0;" parent="1" edge="1">
          <mxGeometry relative="1" as="geometry">
            <mxPoint x="55" y="267" as="targetPoint" />
            <Array as="points">
              <mxPoint x="150" y="267" />
            </Array>
            <mxPoint x="155" y="267" as="sourcePoint" />
          </mxGeometry>
        </mxCell>
        <mxCell id="ShONzFAMttrnNPg3EB9--22" value="&lt;font style=&quot;font-size: 8px;&quot;&gt;Fetch instructor details&lt;/font&gt;" style="html=1;verticalAlign=bottom;endArrow=block;edgeStyle=elbowEdgeStyle;elbow=vertical;curved=0;rounded=0;" parent="1" source="ShONzFAMttrnNPg3EB9--21" target="ShONzFAMttrnNPg3EB9--27" edge="1">
          <mxGeometry relative="1" as="geometry">
            <mxPoint x="325" y="450" as="sourcePoint" />
            <Array as="points">
              <mxPoint x="260" y="450" />
              <mxPoint x="275" y="410" />
            </Array>
            <mxPoint x="170" y="450" as="targetPoint" />
          </mxGeometry>
        </mxCell>
        <mxCell id="ShONzFAMttrnNPg3EB9--23" value="&lt;font style=&quot;font-size: 8px;&quot;&gt;Fetch classroom details&lt;/font&gt;" style="html=1;verticalAlign=bottom;endArrow=block;edgeStyle=elbowEdgeStyle;elbow=vertical;curved=0;rounded=0;" parent="1" source="ShONzFAMttrnNPg3EB9--21" target="ShONzFAMttrnNPg3EB9--27" edge="1">
          <mxGeometry x="0.0028" relative="1" as="geometry">
            <mxPoint x="330" y="490" as="sourcePoint" />
            <Array as="points">
              <mxPoint x="245" y="490" />
              <mxPoint x="260" y="450" />
            </Array>
            <mxPoint x="170" y="490" as="targetPoint" />
            <mxPoint as="offset" />
          </mxGeometry>
        </mxCell>
        <mxCell id="ShONzFAMttrnNPg3EB9--25" value="" style="shape=umlLifeline;perimeter=lifelinePerimeter;whiteSpace=wrap;html=1;container=1;dropTarget=0;collapsible=0;recursiveResize=0;outlineConnect=0;portConstraint=eastwest;newEdgeStyle={&quot;curved&quot;:0,&quot;rounded&quot;:0};participant=umlControl;" parent="1" vertex="1">
          <mxGeometry x="165" y="515" width="20" height="20" as="geometry" />
        </mxCell>
        <mxCell id="ShONzFAMttrnNPg3EB9--26" value="&lt;font style=&quot;font-size: 8px;&quot;&gt;Checking conflicts&lt;/font&gt;" style="text;html=1;align=center;verticalAlign=middle;resizable=0;points=[];autosize=1;strokeColor=none;fillColor=none;fontSize=10;" parent="1" vertex="1">
          <mxGeometry x="174" y="510" width="90" height="30" as="geometry" />
        </mxCell>
        <mxCell id="ShONzFAMttrnNPg3EB9--28" value="&lt;span style=&quot;font-size: 8px;&quot;&gt;Alternative&lt;/span&gt;" style="shape=umlFrame;whiteSpace=wrap;html=1;pointerEvents=0;labelBackgroundColor=none;" parent="1" vertex="1">
          <mxGeometry x="50" y="590" width="290" height="210" as="geometry" />
        </mxCell>
        <mxCell id="ShONzFAMttrnNPg3EB9--30" value="" style="endArrow=none;dashed=1;html=1;rounded=0;exitX=0.002;exitY=0.445;exitDx=0;exitDy=0;exitPerimeter=0;" parent="1" edge="1">
          <mxGeometry width="50" height="50" relative="1" as="geometry">
            <mxPoint x="50.99999999999993" y="702" as="sourcePoint" />
            <mxPoint x="339.4999999999998" y="702" as="targetPoint" />
          </mxGeometry>
        </mxCell>
        <mxCell id="ShONzFAMttrnNPg3EB9--32" value="&lt;font style=&quot;font-size: 8px;&quot;&gt;[checkConflicts() = true]&lt;/font&gt;" style="text;html=1;align=center;verticalAlign=middle;resizable=0;points=[];autosize=1;strokeColor=none;fillColor=none;labelBackgroundColor=default;" parent="1" vertex="1">
          <mxGeometry x="41" y="614" width="110" height="30" as="geometry" />
        </mxCell>
        <mxCell id="ShONzFAMttrnNPg3EB9--33" value="&lt;font style=&quot;font-size: 8px;&quot;&gt;[checkConflicts() = false]&lt;/font&gt;" style="text;html=1;align=center;verticalAlign=middle;resizable=0;points=[];autosize=1;strokeColor=none;fillColor=none;labelBackgroundColor=default;" parent="1" vertex="1">
          <mxGeometry x="43" y="697" width="110" height="30" as="geometry" />
        </mxCell>
        <mxCell id="ShONzFAMttrnNPg3EB9--36" value="" style="shape=umlLifeline;perimeter=lifelinePerimeter;whiteSpace=wrap;html=1;container=1;dropTarget=0;collapsible=0;recursiveResize=0;outlineConnect=0;portConstraint=eastwest;newEdgeStyle={&quot;curved&quot;:0,&quot;rounded&quot;:0};participant=umlControl;" parent="1" vertex="1">
          <mxGeometry x="165" y="630" width="20" height="20" as="geometry" />
        </mxCell>
        <mxCell id="ShONzFAMttrnNPg3EB9--38" value="&lt;span style=&quot;font-size: 8px;&quot;&gt;Schedule the course&lt;/span&gt;" style="text;html=1;align=center;verticalAlign=middle;resizable=0;points=[];autosize=1;strokeColor=none;fillColor=none;fontSize=10;" parent="1" vertex="1">
          <mxGeometry x="173" y="625" width="100" height="30" as="geometry" />
        </mxCell>
        <mxCell id="ShONzFAMttrnNPg3EB9--40" value="&lt;span style=&quot;font-size: 8px;&quot;&gt;Display error message&lt;/span&gt;" style="html=1;verticalAlign=bottom;endArrow=block;edgeStyle=elbowEdgeStyle;elbow=vertical;curved=0;rounded=0;" parent="1" edge="1">
          <mxGeometry relative="1" as="geometry">
            <mxPoint x="155" y="738" as="sourcePoint" />
            <Array as="points">
              <mxPoint x="150" y="738" />
              <mxPoint x="195" y="698" />
            </Array>
            <mxPoint x="55" y="738" as="targetPoint" />
          </mxGeometry>
        </mxCell>
        <mxCell id="ShONzFAMttrnNPg3EB9--43" value="" style="html=1;verticalAlign=bottom;endArrow=block;edgeStyle=elbowEdgeStyle;elbow=vertical;curved=0;rounded=0;" parent="1" edge="1">
          <mxGeometry x="-0.1" y="-2" relative="1" as="geometry">
            <mxPoint x="155" y="682" as="sourcePoint" />
            <Array as="points">
              <mxPoint x="150" y="682" />
              <mxPoint x="195" y="642" />
            </Array>
            <mxPoint x="55" y="682" as="targetPoint" />
            <mxPoint as="offset" />
          </mxGeometry>
        </mxCell>
        <mxCell id="ShONzFAMttrnNPg3EB9--44" value="&lt;font style=&quot;font-size: 7px;&quot;&gt;Display conflict-free schedule&amp;nbsp;&lt;/font&gt;" style="text;html=1;align=center;verticalAlign=middle;resizable=0;points=[];autosize=1;strokeColor=none;fillColor=none;" parent="1" vertex="1">
          <mxGeometry x="46" y="655" width="120" height="30" as="geometry" />
        </mxCell>
      </root>
    </mxGraphModel>
  </diagram>
</mxfile>
